<svg xmlns="http://www.w3.org/2000/svg" width="128" height="128" fill="none">
    <g clip-path="url(#a)">
        <path fill="#FFA36F" stroke="#000" stroke-width=".67"
            d="M35.33 65H4l5 23.33 26.33 28.34 42 7.33 37.34-26 8.66-35L92 65l-8.33 24.33-23.67 4-17.33-9L35.33 65Z" />
        <path fill="#FFB3C0" stroke="#000" stroke-width=".67"
            d="M10.33 36.33 6 66.67l27-1 9.33 20 27 8.66L86.67 83l7-17.33 22-1.67L126 68.33l-4.33-19-10-23.33L77 5 40.33 6.33l-30 30Z" />
        <path fill="#100F0F" fill-rule="evenodd"
            d="M8.74 60.28a52.56 52.56 0 0 1 3.37-16A55.46 55.46 0 0 1 119.33 60.2h-18.4C96 60.19 91 62.59 86.6 74.63a20.69 20.69 0 0 1-5.36 8.02 24.68 24.68 0 0 1-34.93 0 24.75 24.75 0 0 1-5.36-8.01c-1.22-2.94 1.25-5.8 4.43-5.8H58.17c8.9 0 14.13-3.02 17.36-6.25.15-.15.3-.32.42-.5 2.8-3.82 4.36-6.73 5.12-11.14.74-4.26.37-8.68-1.1-12.72A22.23 22.23 0 0 0 72.7 28.1a18.81 18.81 0 0 0-11.44-3.95 4.28 4.28 0 0 0 0 8.55c2.16 0 4.33.74 6.24 2.2a13.68 13.68 0 0 1 4.44 6.24c.95 2.62 1.2 5.54.71 8.35a13 13 0 0 1-1.55 4.46c-1.08 1.95-2.58 3.72-4.58 4.7-1.85.91-4.5 1.63-8.35 1.63H8.74Zm110.57 7.4A55.45 55.45 0 0 1 64 119.28h-.84a55.47 55.47 0 0 1-51.11-36.03 52.33 52.33 0 0 1-3.3-14.43h12.57c5.36 0 9.69 4.14 11.74 9.08a33.33 33.33 0 0 0 30.73 20.53A33.21 33.21 0 0 0 94.5 77.91c2.34-5.66 5.2-10.24 13.21-10.24h11.59Zm8.69-3.83a64 64 0 0 1-59.72 63.86v.14H64A64.02 64.02 0 0 1 4.1 41.27 64.02 64.02 0 0 1 128 63.85Z"
            clip-rule="evenodd" />
    </g>
    <defs>
        <clipPath id="a">
            <path fill="#fff" d="M0 0h128v128H0z" />
        </clipPath>
    </defs>
</svg>